<svg width="22" height="22" viewBox="0 0 22 22" fill="none" xmlns="http://www.w3.org/2000/svg">
<path fill-rule="evenodd" clip-rule="evenodd" d="M0.0908203 21C0.0908203 21.48 0.402598 21.8 0.870263 21.8H21.1358C21.6035 21.8 21.9152 21.48 21.9152 21C21.9152 14.84 17.0047 9.80005 11.003 9.80005C5.00131 9.80005 0.0908203 14.84 0.0908203 21ZM10.2236 11.4C15.3679 11 19.8887 14.92 20.3563 20.2H1.64971C2.03943 15.56 5.70281 11.8 10.2236 11.4Z" fill="white"/>
<path fill-rule="evenodd" clip-rule="evenodd" d="M7.36523 4.39995C7.36523 6.70995 9.27487 8.59995 11.6089 8.59995C13.9429 8.59995 15.8525 6.70995 15.8525 4.39995C15.8525 2.08995 13.9429 0.199951 11.6089 0.199951C9.27487 0.199951 7.36523 2.08995 7.36523 4.39995ZM8.77978 4.39995C8.77978 2.85995 10.0529 1.59995 11.6089 1.59995C13.1649 1.59995 14.438 2.85995 14.438 4.39995C14.438 5.93995 13.1649 7.19995 11.6089 7.19995C10.0529 7.19995 8.77978 5.93995 8.77978 4.39995Z" fill="white"/>
</svg>
