<svg width="18" height="26" viewBox="0 0 18 26" fill="none" xmlns="http://www.w3.org/2000/svg">
<path fill-rule="evenodd" clip-rule="evenodd" d="M8.83282 0.600256C7.23049 0.608356 5.63117 1.22933 4.41992 2.46174C2.98853 3.91824 2.43286 5.90983 2.7038 7.80083H0.376953V8.70079V25.8001H17.3515V7.80083H15.0281C15.3016 5.88868 14.7256 3.87536 13.264 2.41778C12.0405 1.19761 10.4351 0.592157 8.83282 0.600256ZM8.84153 2.3888C9.98285 2.38295 11.1264 2.81858 12.0068 3.69654C13.1287 4.81538 13.4602 6.35972 13.1611 7.80083H4.56823C4.27186 6.37479 4.59056 4.84711 5.69021 3.72817C6.56168 2.84179 7.70043 2.39456 8.84153 2.3888ZM3.24472 9.60076H2.16375V24.0002H15.5647V9.60076H14.4811C14.1882 10.2211 13.8141 10.8115 13.3085 11.326L12.0391 10.0604C12.1162 9.98195 12.1665 9.89037 12.217 9.79859C12.2541 9.73104 12.2913 9.66338 12.3392 9.60076H5.39359C5.44408 9.6666 5.48411 9.73745 5.52407 9.80817C5.58037 9.9078 5.63654 10.0072 5.72163 10.092L4.46442 11.3708C3.93795 10.8458 3.54635 10.2396 3.24472 9.60076Z" fill="white"/>
</svg>
