<svg width="34" height="26" viewBox="0 0 34 26" fill="none" xmlns="http://www.w3.org/2000/svg">
<path fill-rule="evenodd" clip-rule="evenodd" d="M5.36364 1C4.71717 1 4.71717 1.97959 5.36364 1.97959H8.75758V7.36735H3.42424C2.08537 7.36735 1 8.46379 1 9.81633V22.551C1 23.9036 2.08537 25 3.42424 25H24.7576C26.0964 25 27.1818 23.9036 27.1818 22.551V18.1429H32.0303V21.5714C32.0303 21.8419 32.2474 22.0612 32.5152 22.0612C32.7829 22.0612 33 21.8419 33 21.5714V13.7347C33 13.4642 32.7829 13.2449 32.5152 13.2449C32.2474 13.2449 32.0303 13.4642 32.0303 13.7347V17.1633H27.1818V12.7551C27.1818 11.4026 26.0964 10.3061 24.7576 10.3061H19.7427C19.3569 10.3061 18.987 10.1513 18.7142 9.87575L16.9412 8.08464C16.4865 7.62536 15.8699 7.36735 15.227 7.36735H9.72727V1.97959H13.1212C13.7677 1.97959 13.7677 1 13.1212 1H5.36364ZM1.9697 9.81633C1.9697 9.00481 2.62092 8.34694 3.42424 8.34694H15.227C15.6127 8.34694 15.9827 8.50175 16.2555 8.77731L18.0285 10.5684C18.4832 11.0277 19.0998 11.2857 19.7427 11.2857H24.7576C25.5609 11.2857 26.2121 11.9436 26.2121 12.7551V22.551C26.2121 23.3625 25.5609 24.0204 24.7576 24.0204H3.42424C2.62092 24.0204 1.9697 23.3625 1.9697 22.551V9.81633Z" fill="#F2C600"/>
<path d="M8.75758 1.97959H9.25758V1.47959H8.75758V1.97959ZM8.75758 7.36735V7.86735H9.25758V7.36735H8.75758ZM27.1818 18.1429V17.6429H26.6818V18.1429H27.1818ZM32.0303 18.1429H32.5303V17.6429H32.0303V18.1429ZM32.0303 17.1633V17.6633H32.5303V17.1633H32.0303ZM27.1818 17.1633H26.6818V17.6633H27.1818V17.1633ZM18.7142 9.87575L19.0695 9.52399L18.7142 9.87575ZM16.9412 8.08464L16.5858 8.43639L16.9412 8.08464ZM9.72727 7.36735H9.22727V7.86735H9.72727V7.36735ZM9.72727 1.97959V1.47959H9.22727V1.97959H9.72727ZM16.2555 8.77731L16.6108 8.42556L16.6108 8.42556L16.2555 8.77731ZM18.0285 10.5684L18.3839 10.2167L18.0285 10.5684ZM5.36364 1.47959C5.35489 1.47959 5.35041 1.47878 5.34944 1.47858C5.34854 1.4784 5.3502 1.47866 5.35364 1.48017C5.35707 1.48169 5.36112 1.48396 5.36527 1.48702C5.36937 1.49005 5.37276 1.49326 5.37537 1.49624C5.38057 1.50215 5.38138 1.50549 5.38073 1.50364C5.38 1.50157 5.37879 1.49663 5.37879 1.4898C5.37879 1.48296 5.38 1.47802 5.38073 1.47595C5.38138 1.4741 5.38057 1.47745 5.37537 1.48336C5.37276 1.48633 5.36937 1.48954 5.36527 1.49257C5.36112 1.49563 5.35707 1.4979 5.35364 1.49942C5.3502 1.50094 5.34854 1.5012 5.34944 1.50101C5.35041 1.50082 5.35489 1.5 5.36364 1.5V0.5C5.06456 0.5 4.8044 0.618454 4.62463 0.822766C4.45328 1.0175 4.37879 1.26218 4.37879 1.4898C4.37879 1.71742 4.45328 1.96209 4.62463 2.15683C4.8044 2.36114 5.06456 2.47959 5.36364 2.47959V1.47959ZM8.75758 1.47959H5.36364V2.47959H8.75758V1.47959ZM9.25758 7.36735V1.97959H8.25758V7.36735H9.25758ZM3.42424 7.86735H8.75758V6.86735H3.42424V7.86735ZM1.5 9.81633C1.5 8.73514 2.36629 7.86735 3.42424 7.86735V6.86735C1.80445 6.86735 0.5 8.19245 0.5 9.81633H1.5ZM1.5 22.551V9.81633H0.5V22.551H1.5ZM3.42424 24.5C2.36629 24.5 1.5 23.6322 1.5 22.551H0.5C0.5 24.1749 1.80445 25.5 3.42424 25.5V24.5ZM24.7576 24.5H3.42424V25.5H24.7576V24.5ZM26.6818 22.551C26.6818 23.6322 25.8155 24.5 24.7576 24.5V25.5C26.3774 25.5 27.6818 24.1749 27.6818 22.551H26.6818ZM26.6818 18.1429V22.551H27.6818V18.1429H26.6818ZM32.0303 17.6429H27.1818V18.6429H32.0303V17.6429ZM32.5303 21.5714V18.1429H31.5303V21.5714H32.5303ZM32.5152 21.5612C32.5171 21.5612 32.52 21.5617 32.5229 21.5629C32.5254 21.564 32.5269 21.5652 32.5277 21.566C32.5284 21.5668 32.5291 21.5677 32.5296 21.569C32.5303 21.5705 32.5303 21.5717 32.5303 21.5714H31.5303C31.5303 22.1133 31.9665 22.5612 32.5152 22.5612V21.5612ZM32.5 21.5714C32.5 21.5717 32.5 21.5705 32.5007 21.569C32.5012 21.5677 32.5019 21.5668 32.5026 21.566C32.5034 21.5652 32.5049 21.564 32.5074 21.5629C32.5103 21.5617 32.5132 21.5612 32.5152 21.5612V22.5612C33.0638 22.5612 33.5 22.1133 33.5 21.5714H32.5ZM32.5 13.7347V21.5714H33.5V13.7347H32.5ZM32.5152 13.7449C32.5132 13.7449 32.5103 13.7444 32.5074 13.7432C32.5049 13.7421 32.5034 13.7409 32.5026 13.7401C32.5019 13.7393 32.5012 13.7384 32.5007 13.7371C32.5 13.7356 32.5 13.7345 32.5 13.7347H33.5C33.5 13.1928 33.0638 12.7449 32.5152 12.7449V13.7449ZM32.5303 13.7347C32.5303 13.7345 32.5303 13.7356 32.5296 13.7371C32.5291 13.7384 32.5284 13.7393 32.5277 13.7401C32.5269 13.7409 32.5254 13.7421 32.5229 13.7432C32.52 13.7444 32.5171 13.7449 32.5152 13.7449V12.7449C31.9665 12.7449 31.5303 13.1928 31.5303 13.7347H32.5303ZM32.5303 17.1633V13.7347H31.5303V17.1633H32.5303ZM27.1818 17.6633H32.0303V16.6633H27.1818V17.6633ZM26.6818 12.7551V17.1633H27.6818V12.7551H26.6818ZM24.7576 10.8061C25.8155 10.8061 26.6818 11.6739 26.6818 12.7551H27.6818C27.6818 11.1312 26.3774 9.80612 24.7576 9.80612V10.8061ZM19.7427 10.8061H24.7576V9.80612H19.7427V10.8061ZM18.3589 10.2275C18.725 10.5974 19.2227 10.8061 19.7427 10.8061V9.80612C19.4912 9.80612 19.249 9.70524 19.0695 9.52399L18.3589 10.2275ZM16.5858 8.43639L18.3589 10.2275L19.0695 9.52399L17.2965 7.73288L16.5858 8.43639ZM15.227 7.86735C15.7357 7.86735 16.2246 8.07144 16.5858 8.43639L17.2965 7.73288C16.7485 7.17929 16.0042 6.86735 15.227 6.86735V7.86735ZM9.72727 7.86735H15.227V6.86735H9.72727V7.86735ZM9.22727 1.97959V7.36735H10.2273V1.97959H9.22727ZM13.1212 1.47959H9.72727V2.47959H13.1212V1.47959ZM13.1212 1.5C13.13 1.5 13.1344 1.50082 13.1354 1.50101C13.1363 1.5012 13.1346 1.50094 13.1312 1.49942C13.1278 1.4979 13.1237 1.49563 13.1196 1.49257C13.1155 1.48954 13.1121 1.48633 13.1095 1.48336C13.1043 1.47745 13.1035 1.4741 13.1041 1.47595C13.1048 1.47802 13.1061 1.48296 13.1061 1.4898C13.1061 1.49663 13.1048 1.50157 13.1041 1.50364C13.1035 1.50549 13.1043 1.50215 13.1095 1.49624C13.1121 1.49326 13.1155 1.49005 13.1196 1.48702C13.1237 1.48396 13.1278 1.48169 13.1312 1.48017C13.1346 1.47866 13.1363 1.4784 13.1354 1.47858C13.1344 1.47878 13.13 1.47959 13.1212 1.47959V2.47959C13.4203 2.47959 13.6804 2.36114 13.8602 2.15683C14.0316 1.96209 14.1061 1.71742 14.1061 1.4898C14.1061 1.26218 14.0316 1.0175 13.8602 0.822766C13.6804 0.618454 13.4203 0.5 13.1212 0.5V1.5ZM5.36364 1.5H13.1212V0.5H5.36364V1.5ZM3.42424 7.84694C2.34 7.84694 1.4697 8.73346 1.4697 9.81633H2.4697C2.4697 9.27615 2.90184 8.84694 3.42424 8.84694V7.84694ZM15.227 7.84694H3.42424V8.84694H15.227V7.84694ZM16.6108 8.42556C16.2447 8.05567 15.747 7.84694 15.227 7.84694V8.84694C15.4785 8.84694 15.7207 8.94782 15.9002 9.12907L16.6108 8.42556ZM18.3839 10.2167L16.6108 8.42556L15.9002 9.12907L17.6732 10.9202L18.3839 10.2167ZM19.7427 10.7857C19.234 10.7857 18.7451 10.5816 18.3839 10.2167L17.6732 10.9202C18.2212 11.4738 18.9655 11.7857 19.7427 11.7857V10.7857ZM24.7576 10.7857H19.7427V11.7857H24.7576V10.7857ZM26.7121 12.7551C26.7121 11.6722 25.8418 10.7857 24.7576 10.7857V11.7857C25.28 11.7857 25.7121 12.2149 25.7121 12.7551H26.7121ZM26.7121 22.551V12.7551H25.7121V22.551H26.7121ZM24.7576 24.5204C25.8418 24.5204 26.7121 23.6339 26.7121 22.551H25.7121C25.7121 23.0912 25.28 23.5204 24.7576 23.5204V24.5204ZM3.42424 24.5204H24.7576V23.5204H3.42424V24.5204ZM1.4697 22.551C1.4697 23.6339 2.34 24.5204 3.42424 24.5204V23.5204C2.90184 23.5204 2.4697 23.0912 2.4697 22.551H1.4697ZM1.4697 9.81633V22.551H2.4697V9.81633H1.4697Z" fill="#F9C600"/>
</svg>
