<svg width="32" height="31" viewBox="0 0 32 31" fill="none" xmlns="http://www.w3.org/2000/svg">
<path fill-rule="evenodd" clip-rule="evenodd" d="M27.0404 22.229C25.2568 22.229 23.7229 23.43 23.2592 25.0548H19.7277C19.264 23.43 17.7658 22.229 15.9465 22.229C14.8763 22.229 13.8775 22.6529 13.1641 23.3593L7.81332 18.0609C8.49108 17.3898 8.8478 16.5067 8.8478 15.5177C8.8478 13.7515 7.63496 12.2326 5.99405 11.7734V8.62972C7.63496 8.17052 8.8478 6.68697 8.8478 4.88551C8.8478 2.73082 7.09988 1 4.9239 1C2.74792 1 1 2.76614 1 4.92083C1 6.68697 2.21284 8.20585 3.85375 8.66504V11.8088C2.21284 12.2326 1 13.7515 1 15.5177C1 17.6723 2.74792 19.4032 4.9239 19.4032C5.31629 19.4032 5.67301 19.3325 6.02973 19.2619L12.1653 25.3374C12.0939 25.5847 12.0583 25.8319 12.0583 26.1145C12.0583 28.2692 13.8062 30 15.9822 30C17.7658 30 19.2996 28.799 19.7634 27.1742H23.2949C23.7586 28.799 25.2568 30 27.0761 30C29.2521 30 31 28.2692 31 26.1145C31 23.9598 29.2164 22.229 27.0404 22.229ZM3.14031 4.92083C3.14031 3.93179 3.92509 3.15469 4.9239 3.15469C5.92271 3.15469 6.70749 3.93179 6.70749 4.92083C6.70749 5.90987 5.92271 6.68697 4.9239 6.68697C3.92509 6.68697 3.14031 5.90987 3.14031 4.92083ZM4.9239 13.7515C3.92509 13.7515 3.14031 14.5286 3.14031 15.5177C3.14031 16.5067 3.92509 17.2838 4.9239 17.2838C5.92271 17.2838 6.70749 16.5067 6.70749 15.5177C6.70749 14.5286 5.92271 13.7515 4.9239 13.7515ZM15.9822 27.8806C14.9834 27.8806 14.1986 27.1035 14.1986 26.1145C14.1986 25.1255 14.9834 24.3484 15.9822 24.3484C16.981 24.3484 17.7658 25.1255 17.7658 26.1145C17.7658 27.1035 16.981 27.8806 15.9822 27.8806ZM25.2568 26.1145C25.2568 27.1035 26.0416 27.8806 27.0404 27.8806C28.0392 27.8806 28.824 27.1035 28.824 26.1145C28.824 25.1255 28.0392 24.3484 27.0404 24.3484C26.0416 24.3484 25.2568 25.1255 25.2568 26.1145Z" fill="#F2C600"/>
<path d="M23.2592 25.0548V25.3048H23.4478L23.4996 25.1234L23.2592 25.0548ZM19.7277 25.0548L19.4873 25.1234L19.5391 25.3048H19.7277V25.0548ZM13.1641 23.3593L12.9882 23.537L13.1641 23.7111L13.34 23.537L13.1641 23.3593ZM7.81332 18.0609L7.63741 17.8833L7.45801 18.0609L7.63741 18.2385L7.81332 18.0609ZM5.99405 11.7734H5.74405V11.9631L5.92668 12.0142L5.99405 11.7734ZM5.99405 8.62972L5.92668 8.38897L5.74405 8.44008V8.62972H5.99405ZM3.85375 8.66504H4.10375V8.4754L3.92112 8.42429L3.85375 8.66504ZM3.85375 11.8088L3.91627 12.0508L4.10375 12.0024V11.8088H3.85375ZM6.02973 19.2619L6.20563 19.0842L6.11134 18.9909L5.98116 19.0166L6.02973 19.2619ZM12.1653 25.3374L12.4055 25.4067L12.4466 25.2641L12.3412 25.1597L12.1653 25.3374ZM19.7634 27.1742V26.9242H19.5747L19.523 27.1056L19.7634 27.1742ZM23.2949 27.1742L23.5353 27.1056L23.4835 26.9242H23.2949V27.1742ZM23.4996 25.1234C23.9329 23.6051 25.3693 22.479 27.0404 22.479V21.979C25.1444 21.979 23.513 23.2548 23.0188 24.9862L23.4996 25.1234ZM19.7277 25.3048H23.2592V24.8048H19.7277V25.3048ZM15.9465 22.479C17.6519 22.479 19.0536 23.6038 19.4873 25.1234L19.9681 24.9862C19.4743 23.2561 17.8796 21.979 15.9465 21.979V22.479ZM13.34 23.537C14.0066 22.8769 14.9421 22.479 15.9465 22.479V21.979C14.8106 21.979 13.7485 22.4288 12.9882 23.1817L13.34 23.537ZM7.63741 18.2385L12.9882 23.537L13.34 23.1817L7.98922 17.8833L7.63741 18.2385ZM8.5978 15.5177C8.5978 16.4434 8.26536 17.2615 7.63741 17.8833L7.98922 18.2385C8.7168 17.5181 9.0978 16.57 9.0978 15.5177H8.5978ZM5.92668 12.0142C7.46321 12.4442 8.5978 13.8673 8.5978 15.5177H9.0978C9.0978 13.6357 7.80671 12.0211 6.06143 11.5327L5.92668 12.0142ZM5.74405 8.62972V11.7734H6.24405V8.62972H5.74405ZM8.5978 4.88551C8.5978 6.5698 7.46454 7.95861 5.92668 8.38897L6.06143 8.87047C7.80538 8.38244 9.0978 6.80413 9.0978 4.88551H8.5978ZM4.9239 1.25C6.96413 1.25 8.5978 2.8712 8.5978 4.88551H9.0978C9.0978 2.59043 7.23563 0.75 4.9239 0.75V1.25ZM1.25 4.92083C1.25 2.90358 2.88662 1.25 4.9239 1.25V0.75C2.60922 0.75 0.75 2.6287 0.75 4.92083H1.25ZM3.92112 8.42429C2.38459 7.9943 1.25 6.57115 1.25 4.92083H0.75C0.75 6.80279 2.04109 8.41739 3.78637 8.90579L3.92112 8.42429ZM4.10375 11.8088V8.66504H3.60375V11.8088H4.10375ZM1.25 15.5177C1.25 13.8664 2.38487 12.4464 3.91627 12.0508L3.79122 11.5667C2.04081 12.0189 0.75 13.6366 0.75 15.5177H1.25ZM4.9239 19.1532C2.88367 19.1532 1.25 17.532 1.25 15.5177H0.75C0.75 17.8127 2.61217 19.6532 4.9239 19.6532V19.1532ZM5.98116 19.0166C5.62171 19.0878 5.28817 19.1532 4.9239 19.1532V19.6532C5.34441 19.6532 5.72431 19.5772 6.07829 19.5071L5.98116 19.0166ZM12.3412 25.1597L6.20563 19.0842L5.85382 19.4395L11.9894 25.515L12.3412 25.1597ZM12.3083 26.1145C12.3083 25.8547 12.3408 25.6308 12.4055 25.4067L11.9251 25.2681C11.847 25.5385 11.8083 25.8092 11.8083 26.1145H12.3083ZM15.9822 29.75C13.9419 29.75 12.3083 28.1288 12.3083 26.1145H11.8083C11.8083 28.4096 13.6704 30.25 15.9822 30.25V29.75ZM19.523 27.1056C19.0897 28.6238 17.6533 29.75 15.9822 29.75V30.25C17.8782 30.25 19.5096 28.9742 20.0038 27.2428L19.523 27.1056ZM23.2949 26.9242H19.7634V27.4242H23.2949V26.9242ZM27.0761 29.75C25.3706 29.75 23.969 28.6252 23.5353 27.1056L23.0545 27.2428C23.5483 28.9729 25.143 30.25 27.0761 30.25V29.75ZM30.75 26.1145C30.75 28.1288 29.1163 29.75 27.0761 29.75V30.25C29.3878 30.25 31.25 28.4096 31.25 26.1145H30.75ZM27.0404 22.479C29.0836 22.479 30.75 24.1031 30.75 26.1145H31.25C31.25 23.8165 29.3492 21.979 27.0404 21.979V22.479ZM4.9239 2.90469C3.78934 2.90469 2.89031 3.79141 2.89031 4.92083H3.39031C3.39031 4.07217 4.06084 3.40469 4.9239 3.40469V2.90469ZM6.95749 4.92083C6.95749 3.79141 6.05846 2.90469 4.9239 2.90469V3.40469C5.78696 3.40469 6.45749 4.07217 6.45749 4.92083H6.95749ZM4.9239 6.93697C6.05846 6.93697 6.95749 6.05025 6.95749 4.92083H6.45749C6.45749 5.76948 5.78696 6.43697 4.9239 6.43697V6.93697ZM2.89031 4.92083C2.89031 6.05025 3.78934 6.93697 4.9239 6.93697V6.43697C4.06084 6.43697 3.39031 5.76948 3.39031 4.92083H2.89031ZM3.39031 15.5177C3.39031 14.669 4.06084 14.0015 4.9239 14.0015V13.5015C3.78934 13.5015 2.89031 14.3882 2.89031 15.5177H3.39031ZM4.9239 17.0338C4.06084 17.0338 3.39031 16.3663 3.39031 15.5177H2.89031C2.89031 16.6471 3.78934 17.5338 4.9239 17.5338V17.0338ZM6.45749 15.5177C6.45749 16.3663 5.78696 17.0338 4.9239 17.0338V17.5338C6.05846 17.5338 6.95749 16.6471 6.95749 15.5177H6.45749ZM4.9239 14.0015C5.78696 14.0015 6.45749 14.669 6.45749 15.5177H6.95749C6.95749 14.3882 6.05846 13.5015 4.9239 13.5015V14.0015ZM13.9486 26.1145C13.9486 27.2439 14.8476 28.1306 15.9822 28.1306V27.6306C15.1191 27.6306 14.4486 26.9632 14.4486 26.1145H13.9486ZM15.9822 24.0984C14.8476 24.0984 13.9486 24.9851 13.9486 26.1145H14.4486C14.4486 25.2658 15.1191 24.5984 15.9822 24.5984V24.0984ZM18.0158 26.1145C18.0158 24.9851 17.1167 24.0984 15.9822 24.0984V24.5984C16.8452 24.5984 17.5158 25.2658 17.5158 26.1145H18.0158ZM15.9822 28.1306C17.1167 28.1306 18.0158 27.2439 18.0158 26.1145H17.5158C17.5158 26.9632 16.8452 27.6306 15.9822 27.6306V28.1306ZM27.0404 27.6306C26.1774 27.6306 25.5068 26.9632 25.5068 26.1145H25.0068C25.0068 27.2439 25.9059 28.1306 27.0404 28.1306V27.6306ZM28.574 26.1145C28.574 26.9632 27.9035 27.6306 27.0404 27.6306V28.1306C28.175 28.1306 29.074 27.2439 29.074 26.1145H28.574ZM27.0404 24.5984C27.9035 24.5984 28.574 25.2658 28.574 26.1145H29.074C29.074 24.9851 28.175 24.0984 27.0404 24.0984V24.5984ZM25.5068 26.1145C25.5068 25.2658 26.1774 24.5984 27.0404 24.5984V24.0984C25.9059 24.0984 25.0068 24.9851 25.0068 26.1145H25.5068Z" fill="#091C30"/>
</svg>
