<svg width="31" height="32" viewBox="0 0 31 32" fill="none" xmlns="http://www.w3.org/2000/svg">
<path fill-rule="evenodd" clip-rule="evenodd" d="M13.598 0.58025C13.6615 0.265175 13.9226 0.0295506 14.2401 0.000799234C14.2626 -0.000266411 14.2851 -0.000266411 14.3076 0.000799234H16.6955C17.0386 -0.000978728 17.3354 0.241384 17.4051 0.58025L17.7655 2.37541C18.0455 2.47389 18.316 2.58541 18.5765 2.71626L20.097 1.70507C20.3837 1.5205 20.7592 1.56311 20.9981 1.80732C21.2676 2.07994 21.5496 2.35289 21.8348 2.62902L21.8349 2.62914C22.1265 2.9114 22.4215 3.19697 22.7101 3.48887C22.9546 3.73438 22.9923 4.12016 22.8002 4.40917L21.7753 5.94301C21.9057 6.21155 22.016 6.48731 22.1132 6.77242L23.9266 7.17008C24.2625 7.2404 24.5028 7.53979 24.501 7.88588V10.2605C24.4975 10.6023 24.2584 10.8955 23.9266 10.9649L22.1132 11.3626C22.016 11.6477 21.9057 11.9235 21.7753 12.192L22.8002 13.7372C22.9861 14.0238 22.9486 14.4024 22.7101 14.6461C22.4215 14.938 22.1266 15.2235 21.835 15.5058C21.5497 15.782 21.2677 16.055 20.9981 16.3277C20.7592 16.5719 20.3837 16.6145 20.097 16.4299L18.5652 15.4301C18.305 15.5602 18.0339 15.6731 17.7542 15.771L17.4051 17.5548C17.3401 17.8981 17.042 18.1463 16.6955 18.1456H14.3076C13.9611 18.1463 13.663 17.8981 13.598 17.5548L13.2489 15.771C12.9693 15.6731 12.6981 15.5602 12.4379 15.4301L10.9061 16.4299C10.6194 16.6145 10.2439 16.5719 10.005 16.3277C9.73542 16.055 9.45343 15.782 9.16817 15.5059L9.16809 15.5058C8.87655 15.2235 8.58161 14.938 8.29298 14.6461C8.05452 14.4024 8.01699 14.0238 8.20287 13.7372L9.22784 12.192C9.09745 11.9235 8.98707 11.6477 8.88994 11.3626L7.07653 10.9649C6.74473 10.8955 6.50565 10.6023 6.5021 10.2605V7.88588C6.50034 7.53979 6.7406 7.2404 7.07653 7.17008L8.88994 6.77242C8.98707 6.48731 9.09745 6.21155 9.22784 5.94301L8.20287 4.40917C8.01078 4.12016 8.04855 3.73438 8.29298 3.48887C8.5816 3.197 8.87656 2.91145 9.16809 2.62921L9.16818 2.62913C9.45344 2.35297 9.73543 2.07997 10.005 1.80732C10.2439 1.56311 10.6194 1.5205 10.9061 1.70507L12.4266 2.71626C12.6871 2.58541 12.9576 2.47389 13.2376 2.37541L13.598 0.58025ZM16.0985 1.45511H14.9046L14.5892 3.02303C14.5329 3.29551 14.3274 3.51166 14.0598 3.57976C13.5798 3.70776 13.1381 3.90817 12.7082 4.15921C12.4725 4.29573 12.1808 4.28694 11.9536 4.13649L10.602 3.25027C10.4543 3.3955 10.3065 3.53776 10.1596 3.67919L10.1596 3.67921L10.1595 3.67924C10.0168 3.81664 9.8749 3.95326 9.7347 4.09104L10.6358 5.45445C10.7885 5.68146 10.8015 5.97583 10.6696 6.21569C10.4287 6.63441 10.2244 7.11999 10.0951 7.60183C10.0258 7.8642 9.81729 8.06574 9.55448 8.12447L7.94381 8.46533V9.66968L9.55448 10.0219C9.81729 10.0806 10.0258 10.2822 10.0951 10.5445C10.2244 11.0264 10.4287 11.5006 10.6696 11.9193C10.8062 12.162 10.7931 12.4623 10.6358 12.6919L9.74596 14.044C9.88962 14.1851 10.0322 14.3279 10.1756 14.4716C10.3163 14.6126 10.4578 14.7543 10.602 14.8961L11.9536 13.9985C12.1829 13.8516 12.4747 13.8472 12.7082 13.9872C13.1381 14.2382 13.5798 14.4272 14.0598 14.5552C14.3274 14.6233 14.5329 14.8395 14.5892 15.112L14.9046 16.6913H16.0985L16.4139 15.112C16.4702 14.8395 16.6757 14.6233 16.9433 14.5552C17.4233 14.4272 17.865 14.2382 18.2949 13.9872C18.5285 13.8472 18.8202 13.8516 19.0495 13.9985L20.4011 14.8961C20.5451 14.7544 20.6865 14.6128 20.8271 14.472L20.8271 14.472C20.9707 14.3282 21.1134 14.1852 21.2572 14.044L20.3673 12.6919C20.21 12.4623 20.1969 12.162 20.3336 11.9193C20.5745 11.5006 20.7787 11.0264 20.908 10.5445C20.9773 10.2822 21.1858 10.0806 21.4486 10.0219L23.0593 9.66968V8.46533L21.4486 8.12447C21.1858 8.06574 20.9773 7.8642 20.908 7.60183C20.7787 7.11999 20.5745 6.63441 20.3336 6.21569C20.2016 5.97583 20.2146 5.68146 20.3673 5.45445L21.2684 4.09104C21.1283 3.95329 20.9864 3.81672 20.8437 3.67936L20.8435 3.6792L20.8435 3.67918C20.6966 3.53775 20.5488 3.39549 20.4011 3.25027L19.0495 4.13649C18.8223 4.28694 18.5306 4.29573 18.2949 4.15921C17.865 3.90817 17.4233 3.70776 16.9433 3.57976C16.6757 3.51166 16.4702 3.29551 16.4139 3.02303L16.0985 1.45511ZM15.5016 6.14752C13.9107 6.14752 12.6069 7.46273 12.6069 9.0675C12.6069 10.6723 13.9107 11.9875 15.5016 11.9875C17.0924 11.9875 18.3963 10.6723 18.3963 9.0675C18.3963 7.46273 17.0924 6.14752 15.5016 6.14752ZM16.9545 9.0675C16.9545 8.25509 16.307 7.60183 15.5016 7.60183C14.6962 7.60183 14.0486 8.25509 14.0486 9.0675C14.0486 9.87996 14.6962 10.5332 15.5016 10.5332C16.307 10.5332 16.9545 9.87996 16.9545 9.0675ZM28.905 14.6461C28.3403 14.6461 27.8297 14.9025 27.4633 15.2824L27.452 15.271C27.452 15.271 27.4476 15.2802 27.4443 15.2868C27.4423 15.2907 27.4408 15.2938 27.4408 15.2938L27.3888 15.3457C27.1728 15.5617 26.3156 16.4186 25.3908 17.3502L24.9585 17.7856C24.0341 18.7161 23.1575 19.5985 22.8678 19.918C22.693 20.1105 22.6338 20.3828 22.7126 20.6315C22.7915 20.8801 22.9963 21.0672 23.2495 21.1216C23.5026 21.1761 23.7653 21.0897 23.9378 20.8951C24.166 20.6434 25.3365 19.4601 26.4045 18.3842C27.4726 17.3082 28.4657 16.305 28.4657 16.305C28.4733 16.3013 28.4808 16.2975 28.4883 16.2936C28.6129 16.1613 28.7496 16.1004 28.905 16.1004C29.2286 16.1004 29.5583 16.4135 29.5583 16.9185C29.5583 17.1361 29.49 17.3234 29.3893 17.4639C29.3884 17.4657 29.3889 17.468 29.3894 17.4701C29.3898 17.4721 29.3903 17.474 29.3893 17.4752C29.3579 17.5133 25.0463 22.7323 22.2596 26.0193C21.4898 26.9273 20.4321 27.8258 18.9369 27.8258H10.388C9.46833 27.8258 8.50251 27.9942 7.75234 28.7347L5.71366 30.7458C5.52458 30.9272 5.44742 31.1975 5.51191 31.4525C5.5764 31.7075 5.77248 31.9075 6.02458 31.9754C6.27669 32.0433 6.54547 31.9684 6.72737 31.7797L8.76604 29.7687C9.17725 29.3628 9.61302 29.2801 10.388 29.2801H18.9369C21.0069 29.2801 22.4565 28.0189 23.3521 26.9623C26.1618 23.6482 30.5157 18.3728 30.5157 18.3728C30.5235 18.3617 30.531 18.3503 30.5382 18.3387C30.8291 17.9432 31 17.4488 31 16.9185C31 15.7107 30.0998 14.6461 28.905 14.6461ZM5.52218 21.3269C6.78641 20.2826 8.36291 20.0657 9.89238 20.0657H20.9981C21.225 20.0675 21.4378 20.1769 21.5725 20.3611C22.2935 21.3129 22.1355 22.5261 21.6514 23.4288C21.1795 24.3085 20.3422 25.0595 19.2861 24.9967V25.0081H19.2072H12.4041C12.1441 25.0118 11.9023 24.874 11.7713 24.6475C11.6402 24.421 11.6402 24.1409 11.7713 23.9143C11.9023 23.6878 12.1441 23.5501 12.4041 23.5538H19.2861C19.3088 23.5565 19.3313 23.5603 19.3536 23.5651C19.5929 23.589 20.0869 23.291 20.3786 22.7471C20.6105 22.3147 20.6259 21.8776 20.5025 21.52H9.89238C8.49562 21.52 7.31139 21.7273 6.43452 22.4517L1.18577 26.7919C0.877852 27.0492 0.421479 27.0059 0.166434 26.6953C-0.088611 26.3847 -0.0457472 25.9243 0.262173 25.6671L5.52218 21.3269Z" fill="black"/>
</svg>
