<svg width="21" height="31" viewBox="0 0 21 31" fill="none" xmlns="http://www.w3.org/2000/svg">
<path fill-rule="evenodd" clip-rule="evenodd" d="M6.54697 1.36247C7.86311 0.475074 9.4128 0 11 0C12.5872 0 14.1369 0.475074 15.453 1.36247C16.7689 2.24968 17.7911 3.50841 18.3939 4.977C18.9966 6.44543 19.1541 8.06003 18.8471 9.61754C18.5401 11.1751 17.7817 12.6088 16.6645 13.736C16.3218 14.0819 15.7591 14.0888 15.4076 13.7514C15.0562 13.414 15.0492 12.86 15.392 12.514C16.264 11.6342 16.8601 10.5106 17.1019 9.28418C17.3436 8.05771 17.2194 6.78664 16.7456 5.63262C16.272 4.47875 15.4715 3.49604 14.4484 2.80626C13.4256 2.11665 12.2256 1.75001 11 1.75001C9.7744 1.75001 8.5744 2.11665 7.55164 2.80626C6.52859 3.49604 5.72796 4.47875 5.25435 5.63262C4.78064 6.78664 4.65639 8.05771 4.89815 9.28418C5.13987 10.5106 5.73605 11.6342 6.60798 12.514C6.95077 12.86 6.94379 13.414 6.59237 13.7514C6.24096 14.0888 5.6782 14.0819 5.33539 13.736C4.21829 12.6088 3.45995 11.1751 3.15292 9.61754C2.8459 8.06003 3.00329 6.44543 3.60604 4.977C4.20885 3.50841 5.23115 2.24968 6.54697 1.36247Z" fill="black"/>
<path fill-rule="evenodd" clip-rule="evenodd" d="M10.7926 8.77778C10.3106 8.77778 9.91975 9.17575 9.91975 9.66667V20.5892C9.91975 22.0855 8.71107 23.2889 7.24228 23.2551L2.0187 23.1353C1.94887 23.1337 1.88123 23.16 1.83022 23.2085C1.71525 23.318 1.71784 23.5047 1.83581 23.6108L7.82063 28.9993C7.98018 29.1429 8.18581 29.2222 8.39878 29.2222H16.4688C16.856 29.2222 17.1969 28.9623 17.3062 28.584L19.2187 21.9582C19.3205 21.606 19.1992 21.2265 18.9132 21.0027L14.096 17.232C14.015 17.1687 13.9167 17.1323 13.8146 17.128C12.6136 17.078 11.6654 16.072 11.6654 14.848V9.66667C11.6654 9.17575 11.2745 8.77778 10.7926 8.77778ZM8.17412 9.66667C8.17412 8.1939 9.34648 7 10.7926 7C12.2386 7 13.411 8.1939 13.411 9.66667V14.848C13.411 15.1184 13.6205 15.3406 13.8858 15.3518C14.3481 15.371 14.793 15.5355 15.1598 15.8226L19.977 19.5932C20.8345 20.2644 21.1986 21.403 20.8935 22.4597L18.981 29.0855C18.6533 30.2204 17.6304 31 16.4688 31H8.39878C7.75988 31 7.14303 30.7621 6.66439 30.3312L0.679588 24.9428C-0.209514 24.1422 -0.228995 22.7362 0.637553 21.9104C1.02191 21.5442 1.53182 21.3458 2.05804 21.3579L7.28163 21.4779C7.77123 21.4891 8.17412 21.0878 8.17412 20.5892V9.66667Z" fill="black"/>
<path fill-rule="evenodd" clip-rule="evenodd" d="M13 27C13 26.4478 13.4098 26 13.9152 26H15.0848C15.5902 26 16 26.4478 16 27C16 27.5522 15.5902 28 15.0848 28H13.9152C13.4098 28 13 27.5522 13 27Z" fill="black"/>
</svg>
