<svg width="24" height="24" viewBox="0 0 24 24" fill="none" xmlns="http://www.w3.org/2000/svg">
<path d="M12 24C5.38304 24 0 18.617 0 12C0 5.38304 5.38304 0 12 0C13.6554 0 15.2592 0.3312 16.7664 0.984C17.2528 1.19488 17.4765 1.76 17.2656 2.24672C17.0547 2.7328 16.4896 2.95616 16.0029 2.74592C14.7382 2.19776 13.3914 1.92 12 1.92C6.44192 1.92 1.92 6.44192 1.92 12C1.92 17.5581 6.44192 22.08 12 22.08C17.5581 22.08 22.08 17.5581 22.08 12C22.08 10.0618 21.5174 8.16448 20.4784 6.54752L12.249 16.7072C12.0835 16.9114 11.8416 17.039 11.5795 17.0598C11.3174 17.0826 11.0582 16.9936 10.8624 16.8182L6.29376 12.727C5.89888 12.3734 5.86528 11.7664 6.2192 11.3715C6.57248 10.9763 7.17952 10.943 7.57472 11.297L11.392 14.7149L19.7709 4.37056C19.952 4.14688 20.2243 4.01632 20.5123 4.01472C20.8035 3.99968 21.0736 4.14144 21.257 4.36352C23.0259 6.5056 24 9.2176 24 12C24 18.617 18.617 24 12 24Z" fill="black"/>
</svg>
